<svg xmlns="http://www.w3.org/2000/svg" viewBox="0 0 300 200">
  <rect width="300" height="200" fill="#de2910"/>
  <polygon fill="#ffde00" points="50,25 58,45 80,45 62,58 68,80 50,65 32,80 38,58 20,45 42,45"/>
  <polygon fill="#ffde00" points="100,20 105,28 115,26 108,34 112,42 103,38 95,42 98,34 91,26 100,28"/>
  <polygon fill="#ffde00" points="120,45 125,53 135,51 128,59 132,67 123,63 115,67 118,59 111,51 120,53"/>
  <polygon fill="#ffde00" points="120,75 125,83 135,81 128,89 132,97 123,93 115,97 118,89 111,81 120,83"/>
  <polygon fill="#ffde00" points="100,100 105,108 115,106 108,114 112,122 103,118 95,122 98,114 91,106 100,108"/>
</svg>
